# xmcd CD database file
#
# Track frame offsets:
#	150
#	18544
#	32945
#	49141
#	69227
#	86006
#	100717
#	122352
#	143966
#	163719
#	180489
#	197398
#	216777
#	237541
#	252923
#	271277
#	288157
#	307075
#	326585
#
# Disc length: 4636 seconds
#
# Revision: 0
# Processed by: cddbd v1.5.2PL0 Copyright (c) Steve Scherf et al.
# Submitted via: CDex 1.70beta1
#
DISCID=0e121a13
DTITLE=ERA - The Very Best
DYEAR=1900
DGENRE=New Age
TTITLE0=Looking For Something
TTITLE1=ERA
TTITLE2=The Mass
TTITLE3=After Time
TTITLE4=Don't U
TTITLE5=Cathar Rhythm
TTITLE6=Mother
TTITLE7=Hymne
TTITLE8=Enae Volare Mezzo
TTITLE9=Ameno
TTITLE10=Divano
TTITLE11=Infant
TTITLE12=Omen Sore
TTITLE13=Enae Volare
TTITLE14=Devore Amante
TTITLE15=It You Shout
TTITLE16=Avemano
TTITLE17=Voxifera
TTITLE18=Sentence
EXTD=
EXTT0=
EXTT1=
EXTT2=
EXTT3=
EXTT4=
EXTT5=
EXTT6=
EXTT7=
EXTT8=
EXTT9=
EXTT10=
EXTT11=
EXTT12=
EXTT13=
EXTT14=
EXTT15=
EXTT16=
EXTT17=
EXTT18=
PLAYORDER=
